<?xml version="1.0" standalone="no"?>
<!DOCTYPE svg PUBLIC "-//W3C//DTD SVG 20010904//EN"
 "http://www.w3.org/TR/2001/REC-SVG-20010904/DTD/svg10.dtd">
<svg version="1.0" xmlns="http://www.w3.org/2000/svg"
 width="1800.000000pt" height="1600.000000pt" viewBox="0 0 1800.000000 1600.000000"
 preserveAspectRatio="xMidYMid meet">

<g transform="translate(0.000000,1600.000000) scale(0.100000,-0.100000)"
fill="#000000" stroke="none">
<path d="M3827 14985 c-392 -74 -689 -348 -795 -733 l-27 -97 -3 -3370 -2
-3369 -688 686 c-733 732 -751 748 -917 817 -150 63 -213 75 -395 75 -196 0
-275 -17 -435 -93 -119 -57 -197 -114 -291 -213 -118 -125 -201 -272 -245
-438 -20 -73 -23 -109 -23 -250 0 -182 12 -245 75 -395 72 -175 19 -118 1687
-1789 975 -975 1587 -1580 1636 -1617 353 -266 845 -262 1202 10 109 82 3146
3124 3206 3211 375 538 156 1278 -447 1511 -190 74 -425 89 -615 40 -93 -24
-241 -90 -317 -141 -26 -18 -360 -344 -740 -724 l-693 -690 -2 3369 -3 3370
-27 97 c-98 356 -368 624 -717 715 -123 32 -310 39 -424 18z"/>
<path d="M13827 14985 c-392 -74 -689 -348 -795 -733 l-27 -97 -3 -3370 -2
-3369 -688 686 c-733 732 -751 748 -917 817 -150 63 -213 75 -395 75 -196 0
-275 -17 -435 -93 -119 -57 -197 -114 -291 -213 -118 -125 -201 -272 -245
-438 -20 -73 -23 -109 -23 -250 0 -182 12 -245 75 -395 72 -175 19 -118 1687
-1789 975 -975 1587 -1580 1636 -1617 353 -266 845 -262 1202 10 109 82 3146
3124 3206 3211 375 538 156 1278 -447 1511 -190 74 -425 89 -615 40 -93 -24
-241 -90 -317 -141 -26 -18 -360 -344 -740 -724 l-693 -690 -2 3369 -3 3370
-27 97 c-98 356 -368 624 -717 715 -123 32 -310 39 -424 18z"/>
<path d="M827 2984 c-388 -70 -692 -350 -794 -732 -23 -85 -26 -117 -26 -252
0 -135 3 -167 26 -252 94 -351 360 -618 713 -716 l99 -27 8150 0 8150 0 89 23
c364 92 637 361 734 721 22 84 25 116 25 251 0 135 -3 167 -26 252 -94 352
-360 618 -716 717 l-96 26 -8125 2 c-6979 1 -8136 -1 -8203 -13z"/>
</g>
</svg>
