<?xml version="1.0" standalone="no"?>
<!DOCTYPE svg PUBLIC "-//W3C//DTD SVG 20010904//EN"
 "http://www.w3.org/TR/2001/REC-SVG-20010904/DTD/svg10.dtd">
<svg version="1.0" xmlns="http://www.w3.org/2000/svg"
 width="512.000000pt" height="512.000000pt" viewBox="0 0 512.000000 512.000000"
 preserveAspectRatio="xMidYMid meet">

<g transform="translate(0.000000,512.000000) scale(0.100000,-0.100000)"
fill="#000000" stroke="none">
<path d="M2250 5114 c-385 -42 -635 -129 -920 -319 -501 -333 -830 -934 -830
-1515 l0 -109 -47 -7 c-78 -11 -140 -42 -188 -96 -78 -87 -76 -67 -73 -744 3
-593 3 -599 25 -639 22 -42 79 -100 125 -128 15 -9 56 -22 91 -29 l65 -12 16
-66 c49 -200 207 -375 406 -448 l75 -27 499 -3 500 -3 33 -34 c19 -19 46 -38
61 -42 15 -5 129 -8 254 -8 213 0 228 1 254 21 62 46 69 65 72 202 2 117 1
130 -20 166 -42 71 -62 76 -321 76 -246 0 -265 -3 -305 -55 l-20 -26 -484 3
-483 3 -50 25 c-27 13 -69 44 -93 68 -39 39 -81 110 -82 138 0 6 25 16 55 22
95 19 169 79 212 170 20 43 26 74 30 167 l6 114 -29 6 c-126 28 -193 48 -232
71 -99 58 -164 139 -201 251 -20 59 -21 84 -21 424 0 407 2 425 71 528 42 62
110 120 174 147 94 39 624 147 900 183 281 37 434 46 785 46 351 0 504 -9 785
-46 276 -36 806 -144 900 -183 64 -27 132 -85 174 -147 69 -103 71 -121 71
-528 0 -340 -1 -365 -21 -424 -37 -112 -102 -193 -201 -251 -39 -23 -106 -43
-232 -71 l-29 -6 6 -114 c4 -93 10 -125 30 -167 43 -94 130 -159 229 -173 l47
-7 3 -702 c3 -680 4 -702 23 -735 59 -100 189 -106 252 -12 l23 34 0 706 0
706 66 13 c36 7 77 20 92 29 46 28 103 86 125 128 22 40 22 46 25 639 3 677 5
657 -73 744 -48 54 -110 85 -187 96 l-48 7 0 109 c0 369 -144 780 -380 1090
-301 393 -721 645 -1215 727 -85 14 -682 27 -775 17z"/>
<path d="M2270 3434 c-19 -2 -105 -9 -190 -15 -266 -19 -585 -70 -938 -150
-185 -42 -212 -52 -254 -96 -56 -59 -58 -72 -58 -446 l0 -343 26 -53 c28 -55
81 -102 137 -120 18 -6 271 -56 562 -112 414 -79 542 -100 584 -95 113 11 219
92 259 197 11 30 50 156 88 282 37 125 71 227 74 227 3 0 37 -102 74 -227 38
-126 77 -253 89 -282 40 -107 144 -186 261 -198 39 -4 180 20 581 96 292 56
544 106 562 112 56 18 109 65 137 120 l26 53 0 343 c0 374 -2 387 -58 446 -42
44 -69 54 -254 96 -328 75 -601 120 -878 147 -143 14 -750 27 -830 18z"/>
</g>
</svg>
